<svg width="24" height="25" viewBox="0 0 24 25" fill="none" xmlns="http://www.w3.org/2000/svg">
<path d="M21 6.50022H16V4.83022C15.9765 4.19004 15.7002 3.58528 15.2316 3.14851C14.7629 2.71174 14.1402 2.47861 13.5 2.50022H10.5C9.85976 2.47861 9.23706 2.71174 8.76843 3.14851C8.2998 3.58528 8.02346 4.19004 8 4.83022V6.50022H3C2.73478 6.50022 2.48043 6.60558 2.29289 6.79311C2.10536 6.98065 2 7.235 2 7.50022C2 7.76544 2.10536 8.01979 2.29289 8.20733C2.48043 8.39486 2.73478 8.50022 3 8.50022H4V19.5002C4 20.2959 4.31607 21.0589 4.87868 21.6215C5.44129 22.1842 6.20435 22.5002 7 22.5002H17C17.7957 22.5002 18.5587 22.1842 19.1213 21.6215C19.6839 21.0589 20 20.2959 20 19.5002V8.50022H21C21.2652 8.50022 21.5196 8.39486 21.7071 8.20733C21.8946 8.01979 22 7.76544 22 7.50022C22 7.235 21.8946 6.98065 21.7071 6.79311C21.5196 6.60558 21.2652 6.50022 21 6.50022ZM10 16.5002C10 16.7654 9.89464 17.0198 9.70711 17.2073C9.51957 17.3949 9.26522 17.5002 9 17.5002C8.73479 17.5002 8.48043 17.3949 8.29289 17.2073C8.10536 17.0198 8 16.7654 8 16.5002V12.5002C8 12.235 8.10536 11.9806 8.29289 11.7931C8.48043 11.6056 8.73479 11.5002 9 11.5002C9.26522 11.5002 9.51957 11.6056 9.70711 11.7931C9.89464 11.9806 10 12.235 10 12.5002V16.5002ZM10 4.83022C10 4.67022 10.21 4.50022 10.5 4.50022H13.5C13.79 4.50022 14 4.67022 14 4.83022V6.50022H10V4.83022ZM16 16.5002C16 16.7654 15.8946 17.0198 15.7071 17.2073C15.5196 17.3949 15.2652 17.5002 15 17.5002C14.7348 17.5002 14.4804 17.3949 14.2929 17.2073C14.1054 17.0198 14 16.7654 14 16.5002V12.5002C14 12.235 14.1054 11.9806 14.2929 11.7931C14.4804 11.6056 14.7348 11.5002 15 11.5002C15.2652 11.5002 15.5196 11.6056 15.7071 11.7931C15.8946 11.9806 16 12.235 16 12.5002V16.5002Z" fill="white"/>
</svg>
